<?xml version="1.0" encoding="UTF-8" standalone="no"?>
<svg xmlns:svg="http://www.w3.org/2000/svg" xmlns="http://www.w3.org/2000/svg" viewBox="0 0 800 249" height="249" width="800" xml:space="preserve" id="svg2" version="1.1"><defs id="defs6"><linearGradient id="linearGradient56" spreadMethod="pad" gradientTransform="matrix(122.225,122.225,122.225,-122.225,25.3184,25.462)" gradientUnits="userSpaceOnUse" y2="0" x2="1" y1="0" x1="0"><stop id="stop50" offset="0" style="stop-opacity:1;stop-color:#1a2243"/><stop id="stop52" offset="0.5" style="stop-opacity:1;stop-color:#46c1b9"/><stop id="stop54" offset="1" style="stop-opacity:1;stop-color:#c5115b"/></linearGradient><linearGradient id="linearGradient100" spreadMethod="pad" gradientTransform="matrix(158.221,0,0,-158.221,206.702,88.9141)" gradientUnits="userSpaceOnUse" y2="0" x2="1" y1="0" x1="0"><stop id="stop96" offset="0" style="stop-opacity:1;stop-color:#1a2243"/><stop id="stop98" offset="1" style="stop-opacity:1;stop-color:#46c1b9"/></linearGradient><linearGradient id="linearGradient164" spreadMethod="pad" gradientTransform="matrix(208.619,0,0,-208.619,373.409,82.0118)" gradientUnits="userSpaceOnUse" y2="0" x2="1" y1="0" x1="0"><stop id="stop160" offset="0" style="stop-opacity:1;stop-color:#46c1b9"/><stop id="stop162" offset="1" style="stop-opacity:1;stop-color:#c5115b"/></linearGradient></defs><g transform="matrix(1.3333333,0,0,-1.3333333,0,249)" id="g10"><g transform="matrix(1.0102733,0,0,1.0102733,5.9790415,5.979062)" id="g4682"><g id="g112" transform="translate(0,-0.149994)"><path d="m 414.199,49.852 v 0.296 h -0.097 v 0.5 H 414 v 0.5 h -0.102 v 0.5 h -0.097 v 0.5 h -0.102 v 0.602 h -0.097 v 0.102 h 0.097 v 0.097 H 414 v 0.102 h 0.301 v 0.097 h 0.199 v 0.102 h 0.301 v 0.102 H 415 v 0.097 h 0.301 v 0.102 h 0.199 v 0.097 h 0.199 v 0.102 h 0.199 v 0.102 h 0.204 v 0.097 h 0.199 v 0.102 h 0.199 v 0.097 h 0.199 v 0.102 h 0.102 v 0.102 H 417 v 0.097 h 0.199 v 0.102 h 0.199 v 0.097 h 0.102 v 0.102 h 0.199 v 0.102 h 0.102 v 0.097 H 418 v 0.102 h 0.102 v 0.097 h 0.097 v 0.102 h 0.199 v 0.102 h 0.102 v 0.097 h 0.199 v 0.102 h 0.102 v 0.097 h 0.097 V 55.75 H 419 v 0.102 h 0.102 v 0.097 h 0.097 v 0.102 h 0.102 v 0.097 h 0.199 v 0.102 h 0.102 v 0.102 h 0.097 v 0.097 h 0.102 v 0.102 h 0.097 v 0.097 H 420 v 0.102 h 0.102 v 0.102 h 0.097 v 0.097 h 0.102 v 0.199 h 0.097 v 0.102 h 0.102 v 0.102 h 0.102 v 0.097 h 0.097 v 0.102 h 0.102 v 0.199 h 0.097 v 0.102 H 421 v 0.097 h 0.102 v 0.102 h 0.097 v 0.199 h 0.102 v 0.102 h 0.097 v 0.199 h 0.102 v 0.097 h 0.102 v 0.204 h 0.097 v 0.097 h 0.102 v 0.199 h 0.097 V 59.25 H 422 v 0.199 h 0.102 v 0.102 h 0.097 v 0.199 h 0.102 v 0.199 h 0.097 v 0.199 h 0.102 v 0.204 h 0.102 v 0.199 h 0.097 v 0.199 h 0.102 v 0.199 h 0.097 v 0.199 H 423 v 0.204 h 0.102 v 0.199 h 0.097 v 0.301 h 0.102 v 0.199 h 0.097 v 0.199 h 0.102 v 0.301 h 0.102 v 0.199 h 0.097 v 0.199 h 0.102 v 0.301 h 0.097 v 0.199 H 424 v 0.199 h 0.102 v 0.204 h 0.097 v 0.296 h 0.102 v 0.204 h 0.097 v 0.199 h -1.699 v 0.097 H 422.5 v 0.102 h -0.199 v 0.102 h -0.102 v 0.097 h -0.097 v 0.102 h -0.204 v 0.097 h -0.097 v 0.204 h -0.102 v 0.199 h -0.097 V 65.75 H 421.5 v 0.301 h -0.102 v 0.199 h -0.097 v 0.301 h -0.102 v 0.199 h -0.097 v 0.301 H 421 v 0.199 h -0.102 v 0.301 h -0.097 v 0.199 h -0.102 v 0.301 h -0.097 V 68.25 H 420.5 v 0.301 h -0.102 v 0.301 h -0.097 v 0.199 h -0.102 v 0.301 h -0.097 v 0.199 H 420 v 0.301 h -0.102 v 0.199 h -0.097 v 0.301 h -0.102 v 0.199 h -0.097 v 0.301 H 419.5 v 0.199 h -0.102 v 0.301 h -0.097 v 0.199 h -0.102 v 0.301 h -0.097 v 0.296 H 419 v 0.204 h -0.102 v 0.296 h -0.097 v 0.204 h -0.102 v 0.296 h -0.097 v 0.204 H 418.5 v 0.296 h -0.102 v 0.204 h -0.097 v 0.296 h -0.102 v 0.204 h -0.097 v 0.296 H 418 v 0.204 h -0.102 v 0.296 h -0.097 v 0.301 h -0.102 v 0.199 h -0.097 v 0.301 H 417.5 v 0.199 h -0.102 v 0.301 h -0.097 v 0.199 h -0.102 v 0.301 h -0.097 v 0.199 H 417 v 0.301 h -0.102 v 0.199 h -0.097 v 0.301 h -0.102 v 0.199 h -0.097 v 0.301 H 416.5 v 0.301 h -0.102 v 0.199 h -0.097 v 0.301 h -0.102 v 0.199 h -0.097 V 79.75 H 416 v 0.199 h -0.102 v 0.301 h -0.097 v 0.199 h -0.102 v 0.301 h -0.097 v 0.199 H 415.5 v 0.301 h -0.102 v 0.199 h -0.097 v 0.301 h -0.102 v 0.301 h -0.097 V 82.25 H 415 v 0.301 h -0.102 v 0.199 h -0.097 v 0.301 h -0.102 v 0.199 h -0.097 v 0.301 H 414.5 v 0.199 h -0.102 v 0.301 h -0.097 v 0.199 h -0.102 v 0.301 h -0.097 V 84.75 H 414 v 0.301 h -0.102 v 0.301 h -0.097 v 0.199 h -0.102 v 0.301 h -0.097 v 0.199 H 413.5 v 0.301 h -0.102 v 0.199 h -0.097 v 0.301 h -0.102 v 0.199 h -0.097 v 0.301 H 413 v 0.199 h -0.102 v 0.301 h -0.097 v 0.199 h -0.102 v 0.301 h -0.097 v 0.296 H 412.5 v 0.204 h -0.102 v 0.296 h -0.097 v 0.204 h -0.102 v 0.296 h -0.097 v 0.204 H 412 v 0.296 h -0.102 v 0.204 h -0.097 v 0.296 h -0.102 v 0.204 h -0.097 v 0.296 H 411.5 v 0.204 h -0.102 v 0.296 h -0.097 v 0.301 h -0.102 v 0.199 h -0.097 v 0.301 H 411 v 0.199 h -0.102 v 0.301 h -0.097 v 0.199 h -0.102 v 0.301 h -0.097 v 0.199 H 410.5 v 0.301 h -0.102 v 0.199 h -0.097 v 0.301 h -0.102 v 0.199 h -0.097 v 0.301 H 410 v 0.301 h -0.102 v 0.199 h -0.097 v 0.301 h -0.102 v 0.199 h -0.097 V 96.25 H 409.5 v 0.199 h -0.102 v 0.301 h -0.097 v 0.199 h -0.102 v 0.301 h -0.097 v 0.199 H 409 v 0.301 h -0.102 v 0.199 h -0.097 v 0.301 h -0.102 v 0.301 h -0.097 V 98.75 H 408.5 v 0.102 h 5 v -0.204 h 0.102 v -0.296 h 0.097 v -0.301 h 0.102 v -0.199 h 0.097 V 97.551 H 414 v -0.199 h 0.102 v -0.301 h 0.097 V 96.75 h 0.102 v -0.199 h 0.097 V 96.25 h 0.102 v -0.301 h 0.102 V 95.75 h 0.097 v -0.301 h 0.102 v -0.301 h 0.097 V 94.949 H 415 v -0.301 h 0.102 v -0.296 h 0.097 v -0.204 h 0.102 v -0.296 h 0.097 v -0.204 h 0.102 v -0.296 h 0.102 v -0.301 h 0.097 v -0.199 h 0.102 v -0.301 h 0.097 V 92.25 H 416 v -0.199 h 0.102 V 91.75 h 0.097 v -0.301 h 0.102 V 91.25 h 0.097 v -0.301 h 0.102 v -0.301 h 0.102 v -0.199 h 0.097 v -0.301 h 0.102 v -0.199 h 0.097 V 89.648 H 417 v -0.296 h 0.102 v -0.204 h 0.097 v -0.296 h 0.102 v -0.301 h 0.097 v -0.199 h 0.102 v -0.301 h 0.102 V 87.75 h 0.097 v -0.199 h 0.102 V 87.25 h 0.097 V 86.949 H 418 V 86.75 h 0.102 v -0.301 h 0.097 V 86.25 h 0.102 v -0.301 h 0.097 v -0.301 h 0.102 v -0.199 h 0.102 v -0.301 h 0.097 v -0.296 h 0.102 v -0.204 h 0.097 V 84.352 H 419 v -0.301 h 0.102 v -0.199 h 0.097 v -0.301 h 0.102 V 83.25 h 0.097 V 83.051 H 419.5 V 82.75 h 0.102 v -0.199 h 0.097 V 82.25 h 0.102 v -0.301 h 0.097 V 81.75 H 420 v -0.301 h 0.102 v -0.301 h 0.097 v -0.199 h 0.102 v -0.301 h 0.097 v -0.296 h 0.102 v -0.204 h 0.102 v -0.296 h 0.097 v -0.301 h 0.102 v -0.199 h 0.097 V 79.051 H 421 v -0.199 h 0.102 v -0.301 h 0.097 V 78.25 h 0.102 v -0.199 h 0.097 V 77.75 h 0.102 v -0.301 h 0.102 V 77.25 h 0.097 v -0.301 h 0.102 v -0.301 h 0.097 V 76.449 H 422 v -0.301 h 0.102 v -0.296 h 0.097 v -0.204 h 0.102 v -0.296 h 0.097 v -0.204 h 0.102 v -0.296 h 0.102 v -0.301 h 0.097 v -0.199 h 0.102 v -0.301 h 0.097 V 73.75 H 423 v -0.199 h 0.102 V 73.25 h 0.097 v -0.301 h 0.102 V 72.75 h 0.097 v -0.301 h 0.102 v -0.301 h 0.102 v -0.199 h 0.097 v -0.301 h 0.102 v -0.199 h 0.097 V 71.148 H 424 v -0.199 h 0.102 v -0.301 h 0.097 v -0.296 h 0.102 v -0.204 h 0.097 v -0.296 h 0.102 v -0.301 h 0.102 V 69.25 h 0.097 v -0.301 h 0.102 v -0.398 h 0.097 V 68.25 H 425 v -0.102 h 0.898 v 0.204 H 426 v 0.199 h 0.102 v 0.301 h 0.097 v 0.296 h 0.102 v 0.301 h 0.097 v 0.199 h 0.102 v 0.301 h 0.102 v 0.301 h 0.097 v 0.199 h 0.102 v 0.301 h 0.097 v 0.301 H 427 v 0.301 h 0.102 v 0.199 h 0.097 v 0.301 h 0.102 v 0.296 h 0.097 v 0.204 h 0.102 v 0.296 h 0.102 v 0.301 h 0.097 v 0.199 h 0.102 v 0.301 h 0.097 V 73.75 H 428 v 0.199 h 0.102 v 0.301 h 0.097 v 0.301 h 0.102 v 0.199 h 0.097 v 0.301 h 0.102 v 0.301 h 0.102 v 0.199 h 0.097 v 0.301 h 0.102 v 0.199 h 0.097 v 0.301 H 429 v 0.296 h 0.102 v 0.204 h 0.097 v 0.296 h 0.102 v 0.301 h 0.097 v 0.199 h 0.102 v 0.301 h 0.102 v 0.301 h 0.097 v 0.199 h 0.102 v 0.301 h 0.097 v 0.301 H 430 v 0.199 h 0.102 v 0.301 h 0.097 v 0.301 h 0.102 v 0.199 h 0.097 v 0.301 h 0.102 v 0.296 h 0.102 v 0.204 h 0.097 v 0.296 h 0.102 v 0.301 h 0.097 v 0.199 H 431 v 0.301 h 0.102 v 0.301 h 0.097 v 0.199 h 0.102 v 0.301 h 0.097 v 0.301 h 0.102 v 0.199 h 0.102 v 0.301 h 0.097 v 0.199 h 0.102 v 0.301 h 0.097 v 0.301 H 432 v 0.199 h 0.102 v 0.301 h 0.097 v 0.296 h 0.102 v 0.204 h 0.097 v 0.296 h 0.102 v 0.301 h 0.102 v 0.199 h 0.097 v 0.301 h 0.102 v 0.301 h 0.097 v 0.199 H 433 v 0.301 h 0.102 v 0.301 h 0.097 v 0.199 h 0.102 v 0.301 h 0.097 v 0.301 h 0.102 v 0.199 h 0.102 v 0.301 h 0.097 v 0.296 h 0.102 v 0.204 h 0.097 v 0.296 H 434 v 0.301 h 0.102 v 0.199 h 0.097 v 0.301 h 0.102 v 0.301 h 0.097 v 0.199 h 0.102 v 0.301 h 0.102 v 0.199 h 0.097 v 0.301 h 0.102 v 0.301 h 0.097 V 92.25 H 435 v 0.301 h 0.102 v 0.301 h 0.097 v 0.199 h 0.102 v 0.301 h 0.097 v 0.296 h 0.102 v 0.204 h 0.102 v 0.296 h 0.097 v 0.301 h 0.102 v 0.199 h 0.097 v 0.301 H 436 v 0.301 h 0.102 v 0.199 h 0.097 v 0.301 h 0.102 v 0.301 h 0.097 v 0.199 h 0.102 v 0.301 h 0.102 v 0.301 h 0.097 v 0.199 h 0.102 v 0.301 h 0.097 v 0.296 H 437 v 0.204 h 0.102 v 0.296 h 0.097 v 0.301 h 0.102 v 0.199 h 0.097 v 0.204 h 4.903 v -0.301 h -0.102 V 98.25 h -0.097 V 98.051 H 442 V 97.75 h -0.102 v -0.199 h -0.097 V 97.25 h -0.102 v -0.199 h -0.097 V 96.75 H 441.5 v -0.199 h -0.102 V 96.25 h -0.097 v -0.199 h -0.102 V 95.75 h -0.097 V 95.449 H 441 V 95.25 h -0.102 v -0.301 h -0.097 V 94.75 h -0.102 v -0.301 h -0.097 V 94.25 H 440.5 v -0.301 h -0.102 V 93.75 h -0.097 v -0.301 h -0.102 V 93.25 h -0.097 V 92.949 H 440 V 92.75 h -0.102 v -0.301 h -0.097 v -0.301 h -0.102 v -0.199 h -0.097 V 91.648 H 439.5 v -0.199 h -0.102 v -0.301 h -0.097 v -0.199 h -0.102 v -0.301 h -0.097 V 90.449 H 439 v -0.301 h -0.102 v -0.199 h -0.097 v -0.301 h -0.102 v -0.199 h -0.097 V 89.148 H 438.5 v -0.296 h -0.102 v -0.204 h -0.097 v -0.296 h -0.102 v -0.204 h -0.097 V 87.852 H 438 v -0.204 h -0.102 v -0.296 h -0.097 v -0.204 h -0.102 v -0.296 h -0.097 V 86.648 H 437.5 v -0.296 h -0.102 v -0.204 h -0.097 v -0.296 h -0.102 v -0.301 h -0.097 V 85.352 H 437 v -0.301 h -0.102 v -0.199 h -0.097 v -0.301 h -0.102 v -0.199 h -0.097 V 84.051 H 436.5 v -0.199 h -0.102 v -0.301 h -0.097 v -0.199 h -0.102 v -0.301 h -0.097 V 82.852 H 436 v -0.301 h -0.102 V 82.25 h -0.097 v -0.199 h -0.102 V 81.75 h -0.097 V 81.551 H 435.5 V 81.25 h -0.102 v -0.199 h -0.097 V 80.75 h -0.102 v -0.199 h -0.097 V 80.25 H 435 v -0.199 h -0.102 V 79.75 h -0.097 v -0.301 h -0.102 V 79.25 h -0.097 V 78.949 H 434.5 V 78.75 h -0.102 v -0.301 h -0.097 V 78.25 h -0.102 v -0.301 h -0.097 V 77.75 H 434 v -0.301 h -0.102 V 77.25 h -0.097 v -0.301 h -0.102 V 76.75 h -0.097 V 76.449 H 433.5 v -0.301 h -0.102 v -0.199 h -0.097 v -0.301 h -0.102 v -0.199 h -0.097 V 75.148 H 433 v -0.199 h -0.102 v -0.301 h -0.097 v -0.199 h -0.102 v -0.301 h -0.097 V 73.949 H 432.5 v -0.301 h -0.102 v -0.199 h -0.097 v -0.301 h -0.102 v -0.296 h -0.097 V 72.648 H 432 v -0.296 h -0.102 v -0.204 h -0.097 v -0.296 h -0.102 v -0.204 h -0.097 V 71.352 H 431.5 v -0.204 h -0.102 v -0.296 h -0.097 v -0.204 h -0.102 v -0.296 h -0.097 V 70.148 H 431 v -0.296 h -0.102 v -0.301 h -0.097 v -0.199 h -0.102 v -0.301 h -0.097 V 68.852 H 430.5 v -0.301 h -0.102 v -0.199 h -0.097 v -0.301 h -0.102 v -0.199 h -0.097 V 67.551 H 430 v -0.199 h -0.102 v -0.301 h -0.097 v -0.199 h -0.102 v -0.301 h -0.097 V 66.25 H 429.5 v -0.199 h -0.102 V 65.75 h -0.097 v -0.199 h -0.102 V 65.25 h -0.097 V 65.051 H 429 V 64.75 h -0.102 v -0.199 h -0.097 V 64.25 h -0.102 v -0.199 h -0.097 V 63.75 H 428.5 v -0.199 h -0.102 V 63.25 h -0.097 v -0.301 h -0.102 V 62.75 h -0.097 V 62.449 H 428 V 62.25 h -0.102 v -0.301 h -0.097 V 61.75 h -0.102 v -0.301 h -0.097 V 61.25 H 427.5 v -0.199 h -0.102 V 60.75 h -0.097 v -0.199 h -0.102 v -0.199 h -0.097 V 60.148 H 427 v -0.296 h -0.102 v -0.204 h -0.097 v -0.199 h -0.102 V 59.25 h -0.097 V 59.051 H 426.5 v -0.199 h -0.102 v -0.204 h -0.097 v -0.199 h -0.102 v -0.097 h -0.097 V 58.148 H 426 v -0.199 h -0.102 V 57.75 h -0.097 v -0.199 h -0.102 v -0.102 h -0.097 V 57.25 H 425.5 v -0.102 h -0.102 v -0.199 h -0.097 V 56.75 h -0.102 v -0.102 h -0.097 V 56.449 H 425 v -0.097 h -0.102 v -0.204 h -0.097 v -0.097 h -0.102 v -0.102 h -0.097 V 55.75 H 424.5 v -0.102 h -0.102 v -0.097 h -0.097 v -0.199 h -0.102 V 55.25 h -0.097 V 55.148 H 424 v -0.199 h -0.102 v -0.097 h -0.097 V 54.75 h -0.102 v -0.102 h -0.097 V 54.551 H 423.5 v -0.102 h -0.102 v -0.097 h -0.097 V 54.25 h -0.102 v -0.199 h -0.097 v -0.102 h -0.204 v -0.097 h -0.097 V 53.75 h -0.102 v -0.102 h -0.097 V 53.551 H 422.5 v -0.102 h -0.102 v -0.097 h -0.097 V 53.25 h -0.102 v -0.102 h -0.097 V 53.051 H 422 v -0.102 h -0.199 v -0.097 h -0.102 V 52.75 h -0.097 V 52.648 H 421.5 v -0.097 h -0.199 v -0.102 h -0.102 V 52.352 H 421 V 52.25 h -0.102 v -0.102 h -0.199 v -0.097 h -0.097 v -0.102 h -0.204 v -0.097 h -0.097 V 51.75 h -0.199 v -0.102 h -0.204 v -0.097 h -0.199 v -0.102 h -0.097 v -0.097 h -0.204 V 51.25 h -0.199 v -0.102 h -0.301 v -0.097 h -0.199 V 50.949 H 418.5 v -0.097 h -0.199 V 50.75 H 418 v -0.102 h -0.301 v -0.097 h -0.301 v -0.102 h -0.296 v -0.097 h -0.403 V 50.25 h -0.398 v -0.102 h -0.5 v -0.097 h -0.5 v -0.102 h -0.699 v -0.097 z m -26.398,13.796 v 0.102 h -1.5 v 0.102 h -1 v 0.097 h -0.602 v 0.102 h -0.597 v 0.097 H 383.5 v 0.102 h -0.398 v 0.102 h -0.301 v 0.097 h -0.403 v 0.102 H 382 v 0.097 h -0.301 V 64.75 H 381.5 v 0.102 h -0.301 v 0.097 h -0.301 v 0.102 h -0.199 v 0.097 h -0.301 v 0.102 h -0.199 v 0.102 H 380 v 0.097 h -0.102 v 0.102 h -0.199 v 0.097 H 379.5 v 0.102 h -0.199 v 0.102 h -0.199 v 0.097 H 379 v 0.102 h -0.199 v 0.097 h -0.102 v 0.102 h -0.097 v 0.102 h -0.204 v 0.097 h -0.097 v 0.102 h -0.199 v 0.097 H 378 v 0.102 h -0.102 v 0.102 h -0.097 v 0.097 h -0.102 v 0.102 h -0.097 v 0.097 H 377.5 v 0.102 h -0.102 v 0.102 h -0.097 v 0.097 h -0.102 v 0.102 h -0.097 v 0.097 H 377 v 0.102 h -0.102 v 0.102 h -0.097 v 0.097 h -0.102 v 0.199 h -0.097 V 68.25 H 376.5 v 0.102 h -0.102 v 0.199 h -0.097 v 0.097 h -0.102 v 0.102 h -0.097 v 0.199 H 376 v 0.102 h -0.102 v 0.199 h -0.097 v 0.199 h -0.102 v 0.199 h -0.097 V 69.75 H 375.5 v 0.199 h -0.102 v 0.199 h -0.097 v 0.204 h -0.102 v 0.199 h -0.097 v 0.301 H 375 v 0.199 h -0.102 v 0.199 h -0.097 v 0.301 h -0.102 v 0.301 h -0.097 v 0.296 H 374.5 v 0.301 h -0.102 v 0.403 h -0.097 v 0.296 h -0.102 v 0.403 h -0.097 v 0.5 H 374 v 0.5 h -0.102 v 0.398 h -0.097 v 0.801 h -0.102 v 0.699 h -0.097 v 0.903 H 373.5 v 1.398 h -0.102 v 5.898 h 0.102 v 1.403 h 0.102 v 0.898 h 0.097 v 0.699 h 0.102 v 0.704 h 0.097 v 0.5 H 374 v 0.5 h 0.102 v 0.5 h 0.097 v 0.398 h 0.102 v 0.301 h 0.097 v 0.398 h 0.102 v 0.301 h 0.102 v 0.301 h 0.097 v 0.301 h 0.102 v 0.296 h 0.097 v 0.204 H 375 v 0.199 h 0.102 v 0.301 h 0.097 v 0.199 h 0.102 v 0.199 h 0.097 v 0.199 h 0.102 v 0.199 h 0.102 v 0.204 h 0.097 v 0.097 h 0.102 v 0.199 h 0.097 v 0.204 H 376 v 0.097 h 0.102 v 0.199 h 0.097 v 0.102 h 0.102 v 0.199 h 0.097 v 0.102 h 0.102 v 0.097 h 0.102 v 0.102 h 0.097 v 0.199 h 0.102 v 0.102 h 0.097 v 0.097 H 377 v 0.102 h 0.102 v 0.102 h 0.097 v 0.097 h 0.102 v 0.102 h 0.097 v 0.097 h 0.102 v 0.102 h 0.102 v 0.102 h 0.097 v 0.097 h 0.102 v 0.102 h 0.097 v 0.097 H 378 v 0.102 h 0.102 v 0.102 h 0.097 v 0.097 h 0.199 v 0.102 h 0.102 v 0.097 h 0.199 v 0.102 h 0.102 v 0.102 h 0.097 v 0.097 h 0.204 v 0.102 h 0.097 v 0.097 h 0.199 v 0.102 h 0.204 v 0.102 h 0.199 v 0.097 H 380 v 0.102 h 0.199 v 0.097 h 0.199 v 0.102 h 0.204 v 0.102 h 0.199 v 0.097 h 0.301 v 0.102 h 0.199 v 0.097 h 0.301 v 0.102 h 0.296 v 0.102 h 0.301 v 0.097 h 0.403 v 0.102 H 383 v 0.097 h 0.301 v 0.102 h 0.5 v 0.102 h 0.597 v 0.097 H 385 v 0.102 h 0.801 v 0.097 h 1.097 v 0.102 h 5.301 v -0.102 h 1.301 v -0.097 h 0.898 v -0.102 h 0.704 v -0.097 h 0.699 V 99.25 h 0.597 v -0.102 h 0.5 v -0.097 h 0.5 v -0.102 h 0.403 v -0.097 h 0.398 V 98.75 h 0.403 V 98.648 H 399 v -0.097 h 0.301 v -0.102 h 0.301 v -0.097 h 0.296 V 98.25 h 0.204 V 98.051 H 400 v -0.5 h -0.102 v -0.403 h -0.097 V 96.75 h -0.102 v -0.398 h -0.097 V 95.949 H 399.5 v -0.398 h -0.102 V 95.25 h -0.699 v 0.102 h -0.801 v 0.097 H 397 v 0.102 h -1.301 v 0.097 h -1.597 V 95.75 H 390.5 v 0.102 H 390 V 95.75 h -2.199 v -0.102 h -0.903 v -0.097 h -0.699 v -0.102 h -0.5 v -0.097 h -0.5 V 95.25 h -0.398 V 95.148 H 384.5 v -0.097 h -0.301 v -0.102 h -0.301 v -0.097 h -0.199 V 94.75 h -0.301 v -0.102 h -0.199 V 94.551 H 383 v -0.102 h -0.199 v -0.097 h -0.199 V 94.25 H 382.5 v -0.102 h -0.199 v -0.097 h -0.102 V 93.949 H 382 v -0.097 h -0.102 V 93.75 h -0.097 v -0.102 h -0.199 V 93.551 H 381.5 v -0.102 h -0.102 v -0.097 h -0.097 V 93.25 h -0.102 v -0.102 h -0.097 V 93.051 H 381 v -0.102 h -0.102 v -0.097 h -0.097 V 92.75 h -0.102 v -0.199 h -0.097 V 92.449 H 380.5 v -0.097 h -0.102 v -0.204 h -0.097 v -0.097 h -0.102 v -0.102 h -0.097 V 91.75 H 380 v -0.199 h -0.102 v -0.199 h -0.097 v -0.204 h -0.102 v -0.097 h -0.097 V 90.75 H 379.5 v -0.199 h -0.102 V 90.25 h -0.097 v -0.199 h -0.102 v -0.199 h -0.097 V 89.449 H 379 v -0.301 h -0.102 V 88.75 h -0.097 v -0.398 h -0.102 v -0.5 h -0.097 v -0.5 H 378.5 V 86.75 h -0.102 v -0.801 h -0.097 v -1.097 h -0.102 v -2.403 h -0.097 v -1.5 h 0.097 v -2.398 h 0.102 v -1.102 h 0.097 v -0.801 h 0.102 v -0.597 h 0.102 v -0.5 h 0.097 v -0.5 h 0.102 v -0.403 h 0.097 V 74.25 H 379 v -0.301 h 0.102 v -0.301 h 0.097 v -0.296 h 0.102 v -0.204 h 0.097 v -0.296 h 0.102 v -0.204 h 0.102 v -0.296 h 0.097 V 72.25 h 0.102 v -0.199 h 0.097 V 71.852 H 380 v -0.204 h 0.102 v -0.097 h 0.097 v -0.199 h 0.102 V 71.25 h 0.097 v -0.199 h 0.102 v -0.102 h 0.102 v -0.097 h 0.097 V 70.75 h 0.102 v -0.199 h 0.097 V 70.449 H 381 v -0.097 h 0.102 V 70.25 h 0.097 v -0.102 h 0.102 v -0.097 h 0.097 v -0.102 h 0.102 v -0.097 h 0.199 V 69.75 h 0.102 v -0.102 h 0.097 v -0.097 h 0.204 v -0.102 h 0.097 v -0.097 h 0.199 V 69.25 h 0.102 v -0.102 h 0.199 v -0.097 h 0.199 v -0.102 h 0.204 v -0.097 h 0.199 V 68.75 h 0.199 v -0.102 h 0.301 v -0.097 h 0.301 v -0.102 h 0.199 v -0.097 h 0.301 V 68.25 H 385 v -0.102 h 0.398 v -0.097 h 0.5 v -0.102 h 0.602 v -0.097 h 0.699 V 67.75 h 1.301 v -0.102 h 4 v 0.102 h 2.102 v 0.102 H 396 v 0.097 h 1 v 0.102 h 0.898 v 0.097 h 0.801 v 0.102 h 0.602 v 0.102 h 0.597 v 0.097 h 0.301 V 68.25 h 0.102 v -0.602 h 0.097 v -0.597 h 0.102 v -0.699 h 0.102 V 65.75 h 0.097 v -0.5 h -0.097 v -0.102 h -0.301 v -0.097 h -0.403 V 64.949 H 399.5 v -0.097 h -0.398 V 64.75 h -0.403 v -0.102 h -0.398 v -0.097 h -0.5 v -0.102 h -0.602 v -0.097 h -0.597 V 64.25 h -0.5 V 64.148 H 395.5 v -0.097 h -0.801 v -0.102 h -1 v -0.097 h -0.898 V 63.75 h -2.102 v -0.102 z m 77.898,0 v 0.102 h -1.5 v 0.102 h -1 v 0.097 h -0.597 v 0.102 h -0.704 v 0.097 h -0.5 V 64.25 H 461 v 0.102 h -0.398 v 0.097 h -0.403 v 0.102 h -0.301 v 0.097 h -0.296 v 0.102 h -0.301 v 0.102 h -0.199 v 0.097 h -0.301 v 0.102 H 458.5 v 0.097 h -0.199 v 0.102 h -0.199 v 0.102 h -0.204 v 0.097 h -0.199 v 0.102 H 457.5 v 0.097 h -0.199 v 0.102 h -0.102 v 0.102 H 457 v 0.097 h -0.199 v 0.102 h -0.102 v 0.097 h -0.097 v 0.102 h -0.204 v 0.102 h -0.097 v 0.097 h -0.102 v 0.102 H 456 v 0.097 h -0.102 v 0.102 h -0.097 v 0.102 h -0.102 v 0.097 h -0.097 v 0.102 H 455.5 v 0.097 h -0.102 v 0.102 h -0.097 v 0.102 h -0.102 v 0.097 H 455 v 0.102 h -0.102 v 0.097 h -0.097 v 0.204 h -0.102 v 0.097 h -0.097 v 0.102 H 454.5 v 0.199 h -0.102 v 0.102 h -0.097 v 0.097 h -0.102 v 0.102 h -0.097 V 68.75 H 454 v 0.102 h -0.102 v 0.199 h -0.097 v 0.199 h -0.102 v 0.102 h -0.097 v 0.199 H 453.5 v 0.199 h -0.102 v 0.102 h -0.097 v 0.199 h -0.102 v 0.199 h -0.097 v 0.301 H 453 v 0.199 h -0.102 v 0.199 h -0.097 v 0.301 h -0.102 v 0.199 h -0.097 V 71.75 H 452.5 v 0.301 h -0.102 v 0.301 h -0.097 v 0.398 h -0.102 v 0.301 h -0.097 v 0.398 H 452 v 0.403 h -0.102 v 0.5 h -0.097 v 0.5 h -0.102 v 0.597 h -0.097 V 76.25 H 451.5 v 0.699 h -0.102 v 1.301 h -0.097 v 2.301 h -0.102 v 2.301 h 0.102 v 2.296 h 0.097 v 1.301 h 0.102 v 0.699 h 0.102 v 0.801 h 0.097 v 0.602 h 0.102 v 0.5 h 0.097 v 0.5 H 452 v 0.398 h 0.102 v 0.403 h 0.097 v 0.296 h 0.102 v 0.403 h 0.097 v 0.301 h 0.102 v 0.296 h 0.102 v 0.301 h 0.097 v 0.199 h 0.102 v 0.301 h 0.097 v 0.199 H 453 v 0.204 h 0.102 v 0.296 h 0.097 v 0.204 h 0.102 v 0.199 h 0.097 v 0.097 h 0.102 v 0.204 h 0.102 v 0.199 h 0.097 v 0.199 h 0.102 v 0.102 h 0.097 v 0.199 H 454 v 0.097 h 0.102 v 0.204 h 0.097 v 0.097 h 0.102 v 0.102 h 0.097 v 0.199 h 0.102 v 0.102 h 0.102 v 0.097 h 0.097 v 0.102 h 0.102 v 0.199 h 0.097 v 0.102 H 455 v 0.097 h 0.102 v 0.102 h 0.097 v 0.097 h 0.102 v 0.102 h 0.097 v 0.102 h 0.102 v 0.097 h 0.102 v 0.102 h 0.097 v 0.097 h 0.102 V 96.75 H 456 v 0.102 h 0.102 v 0.097 h 0.199 v 0.102 h 0.097 v 0.097 h 0.102 v 0.102 h 0.199 v 0.102 h 0.102 v 0.097 h 0.097 v 0.102 h 0.204 v 0.097 h 0.199 v 0.102 h 0.199 v 0.102 h 0.199 v 0.097 h 0.102 v 0.102 H 458 v 0.097 h 0.199 v 0.102 h 0.199 v 0.102 h 0.301 v 0.097 h 0.199 v 0.102 h 0.301 v 0.097 h 0.301 v 0.102 h 0.199 v 0.102 h 0.403 v 0.097 h 0.296 v 0.102 h 0.403 v 0.097 h 0.398 v 0.102 h 0.5 v 0.102 h 0.5 v 0.097 h 0.602 v 0.102 h 0.801 v 0.097 h 1.097 v 0.102 h 5.403 v -0.102 h 1.199 v -0.097 h 0.898 V 99.449 H 473 v -0.097 h 0.699 V 99.25 h 0.5 v -0.102 h 0.602 v -0.097 h 0.5 v -0.102 h 0.398 v -0.097 h 0.403 V 98.75 h 0.398 v -0.102 h 0.301 v -0.097 h 0.301 v -0.102 h 0.296 v -0.097 h 0.403 V 98.25 h 0.097 v -0.5 h -0.097 v -0.398 h -0.102 v -0.403 h -0.097 V 96.551 H 477.5 v -0.403 h -0.102 v -0.5 h -0.097 V 95.25 h -0.699 v 0.102 h -0.801 v 0.097 h -0.903 v 0.102 H 473.5 v 0.097 h -1.602 v 0.102 h -3.5 v 0.102 h -0.5 V 95.75 h -2.199 v -0.102 h -1 v -0.097 h -0.597 V 95.449 H 463.5 v -0.097 h -0.398 V 95.25 h -0.403 v -0.102 h -0.301 v -0.097 h -0.296 v -0.102 h -0.301 V 94.852 H 461.5 V 94.75 h -0.199 v -0.102 h -0.199 v -0.097 h -0.204 v -0.102 h -0.199 V 94.352 H 460.5 V 94.25 h -0.199 v -0.102 h -0.102 v -0.097 h -0.097 v -0.102 h -0.204 v -0.097 h -0.097 V 93.75 h -0.199 V 93.648 H 459.5 v -0.097 h -0.102 v -0.102 h -0.097 v -0.097 h -0.102 V 93.25 h -0.097 V 93.148 H 459 v -0.097 h -0.102 v -0.102 h -0.097 v -0.097 h -0.102 V 92.75 h -0.097 V 92.648 H 458.5 v -0.199 h -0.102 v -0.097 h -0.097 V 92.25 h -0.102 v -0.102 h -0.097 V 91.949 H 458 V 91.75 h -0.102 v -0.102 h -0.097 v -0.199 h -0.102 V 91.25 h -0.097 V 91.051 H 457.5 v -0.199 h -0.102 v -0.204 h -0.097 v -0.296 h -0.102 v -0.204 h -0.097 V 89.852 H 457 v -0.301 h -0.102 V 89.25 h -0.097 v -0.398 h -0.102 v -0.301 h -0.097 v -0.5 H 456.5 v -0.5 h -0.102 v -0.5 h -0.097 v -0.903 h -0.102 v -0.796 h -0.097 V 83.75 H 456 v -4.199 h 0.102 v -1.5 h 0.097 V 77.25 h 0.102 v -0.898 h 0.097 v -0.5 h 0.102 v -0.5 h 0.102 v -0.5 h 0.097 v -0.301 h 0.102 v -0.403 h 0.097 V 73.852 H 457 v -0.301 h 0.102 V 73.25 h 0.097 v -0.199 h 0.102 V 72.75 h 0.097 v -0.199 h 0.102 v -0.199 h 0.102 v -0.204 h 0.097 v -0.199 h 0.102 V 71.75 h 0.097 V 71.648 H 458 v -0.199 h 0.102 v -0.097 h 0.097 v -0.204 h 0.102 v -0.097 h 0.097 V 70.949 H 458.5 V 70.75 h 0.102 v -0.102 h 0.097 v -0.097 h 0.102 v -0.102 h 0.097 V 70.352 H 459 V 70.25 h 0.102 v -0.102 h 0.097 v -0.097 h 0.102 v -0.102 h 0.097 V 69.852 H 459.5 V 69.75 h 0.199 v -0.102 h 0.102 V 69.551 H 460 v -0.102 h 0.102 v -0.097 h 0.097 V 69.25 h 0.199 v -0.102 h 0.204 v -0.097 h 0.199 V 68.949 H 461 v -0.097 h 0.199 V 68.75 h 0.199 v -0.102 h 0.301 v -0.097 h 0.199 v -0.102 h 0.301 V 68.352 H 462.5 V 68.25 h 0.398 v -0.102 h 0.403 v -0.097 h 0.5 v -0.102 h 0.597 v -0.097 h 0.704 V 67.75 h 1.296 v -0.102 h 4 v 0.102 h 2.102 v 0.102 h 1.398 v 0.097 h 1 v 0.102 h 0.903 v 0.097 h 0.801 v 0.102 h 0.597 v 0.102 h 0.602 v 0.097 h 0.301 v -0.398 h 0.097 v -0.602 h 0.102 V 66.75 h 0.097 v -0.602 h 0.102 v -0.597 h 0.102 V 65.25 H 478.5 v -0.102 h -0.398 v -0.097 h -0.403 v -0.102 h -0.398 v -0.097 h -0.403 V 64.75 H 476.5 v -0.102 h -0.398 v -0.097 h -0.5 v -0.102 h -0.5 V 64.352 H 474.5 V 64.25 h -0.602 v -0.102 h -0.5 V 64.051 H 472.5 v -0.102 h -0.898 v -0.097 h -1 V 63.75 h -2 v -0.102 z m 61.699,0 v 0.102 h -1.5 v 0.102 h -1 v 0.097 h -0.597 v 0.102 h -0.602 v 0.097 h -0.5 v 0.102 h -0.398 v 0.102 h -0.403 v 0.097 h -0.296 v 0.102 h -0.403 v 0.097 h -0.301 v 0.102 h -0.296 v 0.102 h -0.204 v 0.097 h -0.296 v 0.102 h -0.204 v 0.097 h -0.296 v 0.102 h -0.204 v 0.102 h -0.097 v 0.097 h -0.199 v 0.102 h -0.204 v 0.097 h -0.199 V 65.75 H 519 v 0.102 h -0.199 v 0.097 h -0.102 v 0.102 h -0.097 v 0.097 h -0.204 v 0.102 h -0.097 v 0.102 h -0.102 v 0.097 H 518 v 0.102 h -0.102 v 0.097 h -0.199 v 0.102 h -0.097 v 0.102 H 517.5 v 0.097 h -0.102 v 0.102 h -0.097 v 0.097 h -0.102 v 0.102 h -0.097 v 0.102 H 517 v 0.097 h -0.102 v 0.102 h -0.097 v 0.097 h -0.102 v 0.102 h -0.097 v 0.102 H 516.5 v 0.199 h -0.102 v 0.097 h -0.097 v 0.102 h -0.102 v 0.102 h -0.097 v 0.199 H 516 v 0.097 h -0.102 v 0.102 h -0.097 v 0.199 h -0.102 v 0.102 h -0.097 V 69.25 H 515.5 v 0.199 h -0.102 v 0.199 h -0.097 v 0.102 h -0.102 v 0.199 h -0.097 v 0.199 H 515 v 0.204 h -0.102 v 0.199 h -0.097 v 0.199 h -0.102 v 0.301 h -0.097 V 71.25 H 514.5 v 0.199 h -0.102 v 0.301 h -0.097 v 0.301 h -0.102 v 0.301 h -0.097 v 0.296 H 514 v 0.403 h -0.102 v 0.301 h -0.097 v 0.398 h -0.102 v 0.5 h -0.097 v 0.5 H 513.5 v 0.398 h -0.102 v 0.801 h -0.097 v 0.699 h -0.102 v 0.801 h -0.097 v 1.403 H 513 v 6 h 0.102 v 1.398 h 0.097 v 0.898 h 0.102 v 0.704 h 0.097 v 0.699 h 0.102 v 0.5 h 0.102 v 0.5 h 0.097 v 0.398 h 0.102 v 0.5 h 0.097 V 90.75 H 514 v 0.301 h 0.102 v 0.398 h 0.097 v 0.301 h 0.102 v 0.301 h 0.097 v 0.199 h 0.102 v 0.301 h 0.102 v 0.199 h 0.097 v 0.199 h 0.102 v 0.301 h 0.097 v 0.199 H 515 v 0.199 h 0.102 v 0.102 h 0.097 v 0.199 h 0.102 v 0.199 h 0.097 v 0.204 h 0.102 v 0.097 h 0.102 v 0.199 h 0.097 v 0.204 h 0.102 v 0.097 h 0.097 v 0.102 H 516 v 0.199 h 0.102 v 0.102 h 0.097 v 0.097 h 0.102 v 0.102 h 0.097 v 0.199 h 0.102 v 0.102 h 0.102 v 0.097 h 0.097 v 0.102 h 0.102 v 0.097 h 0.097 V 96.25 H 517 v 0.102 h 0.102 v 0.097 h 0.097 v 0.102 h 0.102 v 0.097 h 0.097 v 0.102 h 0.102 v 0.102 h 0.102 v 0.097 h 0.199 v 0.102 h 0.097 v 0.097 H 518 v 0.102 h 0.199 v 0.102 h 0.102 v 0.097 h 0.199 v 0.102 h 0.102 v 0.097 h 0.097 v 0.102 h 0.199 v 0.102 h 0.204 v 0.097 h 0.199 v 0.102 h 0.199 v 0.097 h 0.199 v 0.102 h 0.199 v 0.102 h 0.204 v 0.097 h 0.199 v 0.102 h 0.301 v 0.097 h 0.296 v 0.102 h 0.204 v 0.102 h 0.296 v 0.097 h 0.403 v 0.102 h 0.301 v 0.097 h 0.398 v 0.102 h 0.398 v 0.102 h 0.602 v 0.097 h 0.602 v 0.102 h 0.699 v 0.097 h 1.097 v 0.102 h 5 v -0.102 h 1.204 v -0.097 h 0.699 v -0.102 h 0.699 v -0.097 h 0.398 V 99.25 h 0.5 v -0.102 h 0.5 v -0.097 h 0.301 v -0.102 h 0.403 v -0.097 h 0.296 V 98.75 h 0.301 v -0.102 h 0.199 v -0.097 h 0.301 V 98.449 H 537 v -0.097 h 0.199 V 98.25 h 0.199 v -0.102 h 0.204 v -0.097 h 0.199 V 97.949 H 538 v -0.097 h 0.199 V 97.75 h 0.199 v -0.102 h 0.102 v -0.097 h 0.199 v -0.102 h 0.102 v -0.097 h 0.097 V 97.25 h 0.204 v -0.102 h 0.097 v -0.097 h 0.199 v -0.102 h 0.102 v -0.097 h 0.102 V 96.75 h 0.097 v -0.102 h 0.102 v -0.097 h 0.097 V 96.449 H 540 v -0.097 h 0.102 V 96.25 h 0.097 v -0.102 h 0.102 v -0.097 h 0.097 v -0.102 h 0.102 v -0.097 h 0.102 V 95.75 h 0.097 v -0.102 h 0.102 v -0.199 h 0.097 V 95.352 H 541 v -0.204 h 0.102 v -0.097 h 0.097 v -0.199 h 0.102 V 94.75 h 0.097 v -0.199 h 0.102 v -0.199 h 0.102 v -0.204 h 0.097 v -0.199 h 0.102 V 93.75 h 0.097 V 93.449 H 542 v -0.301 h 0.102 v -0.199 h 0.097 v -0.398 h 0.102 v -0.403 h 0.097 V 91.75 h 0.102 v -0.602 h 0.102 v -0.699 h 0.097 V 87.25 h -0.097 V 86.352 H 542.5 V 85.75 h -0.102 v -0.602 h -0.097 V 84.75 h -0.102 v -0.301 h -0.097 V 84.148 H 542 v -0.296 h -0.102 v -0.301 h -0.097 v -0.199 h -0.102 v -0.204 h -0.097 V 82.949 H 541.5 v -0.097 h -0.102 v -0.204 h -0.097 v -0.199 h -0.102 v -0.097 h -0.097 V 82.148 H 541 v -0.199 h -0.102 v -0.097 h -0.097 V 81.75 h -0.102 v -0.102 h -0.097 V 81.551 H 540.5 v -0.102 h -0.102 v -0.097 h -0.097 V 81.25 h -0.102 v -0.102 h -0.097 V 81.051 H 540 v -0.102 h -0.102 v -0.097 h -0.199 V 80.75 h -0.097 v -0.102 h -0.204 v -0.097 h -0.199 V 80.449 H 539 v -0.097 h -0.102 V 80.25 h -0.199 V 80.148 H 538.5 v -0.097 h -0.301 v -0.102 h -0.398 V 79.852 H 537.5 V 79.75 h -0.398 v -0.102 h -0.403 V 79.551 H 535.5 V 79.449 H 517.699 V 79.25 h 0.102 v -1.102 h 0.097 V 77.25 H 518 v -0.699 h 0.102 v -0.5 h 0.097 v -0.5 h 0.102 v -0.5 h 0.097 v -0.403 h 0.102 v -0.296 h 0.102 v -0.403 h 0.097 v -0.301 h 0.102 v -0.199 h 0.097 V 73.148 H 519 v -0.199 h 0.102 v -0.301 h 0.097 v -0.199 h 0.102 V 72.25 h 0.097 v -0.199 h 0.102 v -0.199 h 0.102 V 71.75 h 0.097 v -0.199 h 0.102 v -0.102 h 0.097 V 71.25 H 520 v -0.102 h 0.102 v -0.199 h 0.097 v -0.097 h 0.102 V 70.75 h 0.097 v -0.102 h 0.102 v -0.097 h 0.102 v -0.102 h 0.097 v -0.097 h 0.102 v -0.204 h 0.097 v -0.097 h 0.204 v -0.102 h 0.097 v -0.097 h 0.102 V 69.75 h 0.097 v -0.102 h 0.102 v -0.097 h 0.199 v -0.102 h 0.102 V 69.352 H 522 V 69.25 h 0.102 v -0.102 h 0.199 v -0.097 h 0.199 v -0.102 h 0.199 v -0.097 h 0.199 V 68.75 h 0.204 v -0.102 h 0.199 v -0.097 h 0.301 v -0.102 h 0.296 v -0.097 h 0.301 V 68.25 h 0.301 v -0.102 h 0.5 v -0.097 h 0.398 V 67.949 H 526 v -0.097 h 0.699 V 67.75 H 528 v -0.102 h 3.602 v 0.102 h 2.199 v 0.102 h 1.597 v 0.097 h 1.204 v 0.102 h 1.097 v 0.097 h 1.102 v 0.102 h 0.801 v 0.102 h 0.898 v 0.097 h 0.801 v 0.102 h 0.097 v -0.102 h 0.102 v -0.597 h 0.102 V 67.25 h 0.097 v -0.602 h 0.102 v -0.597 h 0.097 v -0.699 h -0.097 V 65.25 H 541.5 v -0.102 h -0.398 v -0.097 h -0.301 V 64.949 H 540.5 V 64.852 H 540 V 64.75 h -0.398 v -0.102 h -0.403 v -0.097 h -0.597 V 64.449 H 538 v -0.097 h -0.602 V 64.25 h -0.699 V 64.148 H 536 v -0.097 h -1 v -0.102 h -0.898 v -0.097 h -1.403 V 63.75 h -1.801 v -0.102 z m 36.403,0.102 v 0.102 h -2 v 0.097 h -1.403 v 0.102 h -1.199 v 0.097 h -1 v 0.102 h -0.898 v 0.102 H 556.5 v 0.097 h -0.801 v 0.102 H 555 v 0.097 h -0.398 v 0.102 h 0.097 v 1 h 0.102 v 0.898 h 0.097 v 0.903 H 555 v 0.5 h 1.102 v -0.102 h 1.199 V 67.852 H 559 V 67.75 h 2.102 v -0.102 h 8 V 67.75 H 571 v 0.102 h 1 v 0.097 h 0.699 v 0.102 h 0.602 v 0.097 h 0.5 v 0.102 h 0.301 v 0.102 h 0.296 v 0.097 h 0.301 v 0.102 H 575 v 0.097 h 0.199 v 0.102 h 0.199 v 0.102 h 0.204 v 0.097 h 0.097 v 0.102 h 0.199 v 0.097 H 576 v 0.102 h 0.102 v 0.102 h 0.097 v 0.097 h 0.199 v 0.199 h 0.102 v 0.102 h 0.102 v 0.102 h 0.097 v 0.097 h 0.102 v 0.199 h 0.097 v 0.204 H 577 v 0.097 h 0.102 v 0.301 h 0.097 v 0.301 h 0.102 v 0.301 h 0.097 v 0.398 h 0.102 v 0.801 h 0.102 v 1.398 H 577.5 v 1 h -0.102 v 0.301 h -0.097 v 0.398 h -0.102 v 0.301 h -0.097 v 0.199 H 577 v 0.204 h -0.102 v 0.199 h -0.097 v 0.199 h -0.102 v 0.102 h -0.097 v 0.097 H 576.5 v 0.102 h -0.102 v 0.097 h -0.097 v 0.102 h -0.102 v 0.102 h -0.097 v 0.097 H 576 v 0.102 h -0.102 v 0.097 h -0.199 v 0.102 h -0.097 v 0.102 h -0.204 v 0.097 h -0.097 v 0.102 h -0.199 v 0.097 h -0.204 v 0.102 h -0.296 v 0.102 h -0.204 v 0.097 h -0.296 v 0.102 h -0.301 v 0.097 h -0.403 V 78.75 H 573 v 0.102 h -0.398 v 0.097 h -0.5 v 0.102 h -0.5 v 0.097 h -0.5 V 79.25 H 570.5 v 0.102 H 570 v 0.097 h -0.5 v 0.102 H 569 v 0.097 h -0.602 v 0.102 h -0.5 v 0.102 h -0.5 v 0.097 h -0.597 v 0.102 h -0.5 v 0.097 h -0.5 v 0.102 h -0.5 v 0.102 h -0.602 v 0.097 h -0.5 v 0.102 h -0.5 v 0.097 h -0.597 v 0.102 h -0.5 v 0.102 h -0.5 v 0.097 h -0.5 v 0.102 h -0.403 v 0.097 h -0.398 v 0.102 h -0.403 v 0.102 H 560 v 0.097 h -0.398 v 0.102 h -0.204 v 0.097 h -0.296 v 0.102 h -0.204 v 0.102 h -0.296 v 0.097 h -0.204 v 0.102 h -0.296 v 0.097 H 558 v 0.102 h -0.199 v 0.102 h -0.199 v 0.097 H 557.5 v 0.102 h -0.199 v 0.097 h -0.199 V 82.75 H 557 v 0.102 h -0.199 v 0.097 h -0.102 v 0.102 h -0.097 v 0.097 H 556.5 v 0.102 h -0.102 v 0.102 h -0.097 v 0.097 h -0.102 v 0.102 h -0.097 v 0.097 H 556 v 0.102 h -0.102 v 0.102 h -0.097 v 0.097 h -0.102 v 0.102 h -0.097 v 0.097 H 555.5 v 0.204 h -0.102 v 0.097 h -0.097 v 0.199 h -0.102 v 0.102 h -0.097 v 0.199 H 555 v 0.102 h -0.102 v 0.199 h -0.097 v 0.301 h -0.102 v 0.301 h -0.097 v 0.199 H 554.5 v 0.301 h -0.102 v 0.199 h -0.097 v 0.5 h -0.102 v 0.5 h -0.097 v 0.5 H 554 v 0.898 h -0.102 v 3.199 H 554 v 0.903 h 0.102 v 0.597 h 0.097 v 0.403 h 0.102 v 0.398 h 0.097 v 0.301 h 0.102 v 0.301 h 0.102 v 0.301 h 0.097 v 0.199 h 0.102 v 0.199 h 0.097 v 0.199 H 555 v 0.199 h 0.102 v 0.204 h 0.097 v 0.097 h 0.102 v 0.102 h 0.097 v 0.199 h 0.102 v 0.102 h 0.102 v 0.199 h 0.097 v 0.097 h 0.102 v 0.102 h 0.097 v 0.102 H 556 v 0.097 h 0.102 v 0.102 h 0.097 v 0.097 h 0.102 v 0.102 h 0.199 v 0.102 h 0.102 v 0.097 h 0.199 v 0.102 h 0.097 v 0.097 H 557 v 0.102 h 0.199 v 0.102 h 0.199 v 0.097 h 0.204 v 0.102 h 0.199 v 0.097 H 558 v 0.102 h 0.301 v 0.102 h 0.301 v 0.097 h 0.199 v 0.102 h 0.398 v 0.097 h 0.403 v 0.102 h 0.296 v 0.102 h 0.602 v 0.097 h 0.602 v 0.102 h 0.796 v 0.097 H 563 v 0.102 h 7.301 v -0.102 h 1.801 v -0.097 h 1.699 v -0.102 h 1.301 v -0.097 h 1.097 V 99.25 h 1.102 v -0.102 h 1 V 99.051 H 579 v -0.102 h 0.801 v -0.097 h 0.801 V 98.75 h 0.597 v -0.199 h -0.097 V 97.852 H 581 v -0.801 h -0.102 V 96.25 h -0.097 v -0.699 h -0.102 v -0.199 h -0.597 v 0.097 h -2.204 v 0.102 h -2.199 v 0.097 h -3 v 0.102 h -4.801 v 0.102 h -3.097 V 95.75 H 563 v -0.102 h -0.801 v -0.097 h -0.597 v -0.102 h -0.301 v -0.097 h -0.403 V 95.25 h -0.199 v -0.102 h -0.301 v -0.097 h -0.097 v -0.102 h -0.199 v -0.097 h -0.204 V 94.75 h -0.097 v -0.102 h -0.102 v -0.097 h -0.097 V 94.449 H 559.5 v -0.097 h -0.102 V 94.25 h -0.097 v -0.102 h -0.102 v -0.097 h -0.097 V 93.852 H 559 v -0.204 h -0.102 v -0.199 h -0.097 v -0.301 h -0.102 v -0.296 h -0.097 V 92.449 H 558.5 v -0.597 h -0.102 v -2.801 h 0.102 v -0.5 h 0.102 v -0.403 h 0.097 v -0.296 h 0.102 v -0.204 h 0.097 V 87.352 H 559 v -0.204 h 0.102 v -0.199 h 0.097 v -0.097 h 0.102 V 86.75 h 0.097 v -0.102 h 0.102 v -0.199 h 0.102 v -0.097 h 0.097 V 86.25 h 0.199 V 86.148 H 560 v -0.097 h 0.102 v -0.102 h 0.199 v -0.097 h 0.097 V 85.75 h 0.204 v -0.102 h 0.199 V 85.551 H 561 v -0.102 h 0.199 V 85.352 H 561.5 V 85.25 h 0.301 v -0.102 h 0.301 v -0.097 h 0.296 v -0.102 h 0.403 v -0.097 h 0.398 V 84.75 h 0.5 v -0.102 h 0.5 v -0.097 h 0.602 v -0.102 h 0.5 v -0.097 h 0.5 V 84.25 h 0.5 v -0.102 h 0.597 v -0.097 h 0.5 v -0.102 h 0.5 V 83.852 H 568.5 V 83.75 h 0.5 v -0.102 h 0.5 v -0.097 h 0.602 v -0.102 h 0.5 v -0.097 h 0.5 V 83.25 h 0.597 v -0.102 h 0.5 v -0.097 h 0.5 v -0.102 h 0.602 v -0.097 h 0.5 V 82.75 h 0.5 v -0.102 h 0.398 v -0.097 h 0.403 v -0.102 h 0.398 v -0.097 h 0.398 V 82.25 h 0.301 v -0.102 h 0.301 v -0.097 h 0.199 V 81.949 H 577 v -0.097 h 0.199 V 81.75 h 0.301 v -0.102 h 0.199 v -0.097 h 0.199 v -0.102 h 0.204 v -0.097 h 0.097 V 81.25 h 0.199 v -0.102 h 0.204 v -0.097 h 0.199 v -0.102 h 0.097 v -0.097 h 0.204 V 80.75 h 0.097 v -0.102 h 0.102 v -0.097 h 0.097 v -0.102 h 0.102 v -0.097 h 0.102 V 80.25 h 0.097 v -0.102 h 0.199 V 80.051 H 580 v -0.102 h 0.102 v -0.097 h 0.097 v -0.204 h 0.102 v -0.097 h 0.097 V 79.449 H 580.5 V 79.25 h 0.102 v -0.102 h 0.097 v -0.199 h 0.102 v -0.097 h 0.097 V 78.75 H 581 v -0.301 h 0.102 V 78.25 h 0.097 v -0.199 h 0.102 V 77.75 h 0.097 v -0.199 h 0.102 v -0.199 h 0.102 v -0.403 h 0.097 v -0.5 h 0.102 v -0.398 h 0.097 v -0.5 H 582 v -4.199 h -0.102 v -0.801 h -0.097 v -0.403 h -0.102 v -0.5 h -0.097 V 69.352 H 581.5 v -0.301 h -0.102 V 68.75 h -0.097 v -0.301 h -0.102 V 68.25 h -0.097 V 68.051 H 581 v -0.199 h -0.102 V 67.75 h -0.097 v -0.199 h -0.102 v -0.199 h -0.097 V 67.25 H 580.5 v -0.102 h -0.102 v -0.199 h -0.097 v -0.097 h -0.102 V 66.75 h -0.097 V 66.648 H 580 v -0.097 h -0.102 v -0.102 h -0.097 v -0.097 h -0.102 V 66.25 h -0.097 V 66.148 H 579.5 v -0.097 h -0.102 v -0.102 h -0.097 v -0.097 h -0.199 V 65.75 H 579 v -0.102 h -0.199 v -0.097 h -0.102 V 65.449 H 578.5 v -0.097 h -0.199 V 65.25 h -0.199 v -0.102 h -0.204 v -0.097 h -0.199 V 64.949 H 577.5 v -0.097 h -0.301 V 64.75 h -0.301 v -0.102 h -0.296 v -0.097 h -0.301 v -0.102 h -0.403 V 64.352 H 575.5 V 64.25 h -0.602 v -0.102 h -0.5 v -0.097 h -0.796 v -0.102 h -0.903 v -0.097 h -1.5 V 63.75 Z m -65.699,0.199 v 0.102 H 497 v 0.097 h -0.398 v 0.102 h -0.403 v 0.102 h -0.398 v 0.097 H 495.5 v 0.102 h -0.199 v 0.097 h -0.199 v 0.102 h -0.204 v 0.102 h -0.199 v 0.097 H 494.5 v 0.102 h -0.199 v 0.097 h -0.199 V 65.25 H 494 v 0.102 h -0.102 v 0.097 h -0.199 v 0.102 h -0.097 v 0.097 H 493.5 v 0.102 h -0.102 v 0.102 h -0.199 v 0.097 h -0.097 v 0.102 H 493 v 0.097 h -0.102 v 0.102 h -0.097 v 0.199 h -0.102 v 0.102 h -0.097 v 0.097 H 492.5 v 0.102 h -0.102 v 0.199 h -0.097 v 0.102 h -0.102 v 0.097 h -0.097 v 0.204 H 492 v 0.199 h -0.102 v 0.199 h -0.097 v 0.199 h -0.102 v 0.199 h -0.097 v 0.204 H 491.5 v 0.199 h -0.102 v 0.398 h -0.097 v 0.403 h -0.102 v 0.398 h -0.097 v 0.398 H 491 v 0.903 h -0.102 v 43.097 h 4.5 V 72.75 h 0.102 v -1 h 0.102 v -0.398 h 0.097 v -0.403 h 0.102 V 70.75 h 0.097 V 70.551 H 496 v -0.199 h 0.102 v -0.204 h 0.097 v -0.199 h 0.102 v -0.097 h 0.097 V 69.75 h 0.102 v -0.102 h 0.102 v -0.199 h 0.097 v -0.097 h 0.199 V 69.25 H 497 v -0.102 h 0.102 v -0.097 h 0.199 v -0.102 h 0.097 v -0.097 h 0.204 V 68.75 h 0.199 V 68.648 H 498 v -0.097 h 0.199 v -0.102 h 0.403 V 68.352 H 499 V 68.25 h 0.699 v -0.102 h 4.403 v -0.597 h 0.097 v -0.602 h 0.102 V 66.25 h 0.097 v -0.699 h 0.102 v -0.699 h 0.102 v -0.204 h -0.204 V 64.551 H 504 v -0.102 h -0.398 V 64.352 H 503 V 64.25 h -0.699 V 64.148 H 501.5 v -0.097 h -1.102 v -0.102 z m 19.597,19.199 v -0.097 h 16.102 v 0.097 h 1.097 v 0.102 h 0.301 v 0.102 h 0.301 v 0.097 h 0.301 v 0.102 H 536 v 0.097 h 0.102 v 0.102 h 0.199 v 0.102 h 0.097 v 0.097 h 0.204 v 0.102 h 0.097 v 0.097 h 0.102 v 0.204 h 0.097 v 0.097 H 537 v 0.102 h 0.102 v 0.097 h 0.097 v 0.102 h 0.102 v 0.301 h 0.097 v 0.199 h 0.102 v 0.199 h 0.102 v 0.199 h 0.097 v 0.301 h 0.102 v 0.403 h 0.097 v 0.5 H 538 v 0.796 h 0.102 v 1.704 H 538 v 1.097 h -0.102 v 0.403 h -0.097 v 0.398 h -0.102 v 0.301 h -0.097 v 0.301 H 537.5 v 0.296 h -0.102 v 0.102 h -0.097 v 0.199 h -0.102 v 0.199 h -0.097 V 92.75 H 537 v 0.199 h -0.102 v 0.199 h -0.097 v 0.102 h -0.102 v 0.102 h -0.097 v 0.097 H 536.5 v 0.102 h -0.102 v 0.097 h -0.097 v 0.102 h -0.102 v 0.102 h -0.097 v 0.097 H 536 v 0.102 h -0.102 v 0.097 h -0.199 v 0.102 h -0.097 v 0.102 h -0.204 v 0.097 h -0.199 v 0.102 H 535 v 0.097 h -0.199 v 0.102 h -0.199 v 0.102 H 534.5 v 0.097 h -0.398 v 0.102 h -0.301 v 0.097 H 533.5 v 0.102 h -0.301 v 0.102 h -0.398 v 0.097 h -0.602 v 0.102 h -0.597 v 0.097 h -0.704 v 0.102 h -2.199 v 0.102 h -0.301 V 95.75 h -2 v -0.102 h -0.796 v -0.097 h -0.704 V 95.449 H 524.5 v -0.097 h -0.398 V 95.25 h -0.403 v -0.102 h -0.301 v -0.097 h -0.296 v -0.102 h -0.204 v -0.097 h -0.296 V 94.75 h -0.204 v -0.102 h -0.199 v -0.097 h -0.097 v -0.102 h -0.204 v -0.097 h -0.199 V 94.25 h -0.097 v -0.102 h -0.204 v -0.097 h -0.097 v -0.102 h -0.102 V 93.852 H 521 V 93.75 h -0.102 v -0.102 h -0.097 v -0.097 h -0.102 v -0.102 h -0.097 V 93.352 H 520.5 V 93.25 h -0.102 v -0.102 h -0.097 v -0.097 h -0.102 v -0.102 h -0.097 V 92.75 H 520 v -0.102 h -0.102 v -0.097 h -0.097 v -0.199 h -0.102 V 92.25 h -0.097 V 92.051 H 519.5 v -0.199 h -0.102 V 91.75 h -0.097 v -0.199 h -0.102 v -0.199 h -0.097 V 91.148 H 519 v -0.296 h -0.102 v -0.204 h -0.097 v -0.296 h -0.102 v -0.301 h -0.097 V 89.75 H 518.5 v -0.398 h -0.102 v -0.301 h -0.097 v -0.5 h -0.102 v -0.5 h -0.097 V 87.352 H 518 v -0.704 h -0.102 v -1.097 h -0.097 v -1.903 h -0.102 v -0.5" style="fill:url(#linearGradient164);stroke:none" id="path166"/></g><g id="g74" transform="translate(0,-0.149994)"><path d="m 328.82,74.543 c -3.968,-3.473 -8.57,-4.816 -11.683,-4.816 -3.469,0 -5.028,1.418 -5.028,4.816 v 1.844 c 0,2.617 0.922,4.246 4.106,4.386 h 12.605 z m -5.382,25.488 c -4.817,0 -11.895,-0.781 -16.782,-1.629 l 0.637,-5.027 c 5.383,0.422 11.262,0.852 14.656,0.852 5.313,0 6.801,-1.344 6.871,-5.598 v -2.688 h -13.879 c -6.23,0 -9.769,-3.113 -9.769,-8.64 v -3.61 c 0,-6.296 4.25,-9.769 10.547,-9.769 6.301,0 11.187,3.398 13.804,6.09 l 0.782,-5.453 h 5.379 v 24.07 c 0,8.711 -4.246,11.402 -12.246,11.402 z M 285.992,73.973 c -4.461,-3.043 -6.656,-4.317 -10.336,-4.317 -5.242,0 -7.367,2.551 -7.367,12.391 0,9.84 2.125,12.035 7.793,12.035 3.465,0 6.156,-0.707 9.91,-1.699 z m 0,29.738 c 0,-2.406 0.07,-4.531 0.281,-6.797 -3.679,2.125 -7.789,3.117 -11.894,3.117 -8.777,0 -13.168,-4.461 -13.168,-18.054 0,-11.895 3.398,-18.27 12.105,-18.27 5.383,0 10.055,2.621 13.594,5.598 l 0.57,-4.746 h 5.379 v 49.562 h -6.867 z m 78.149,-33.559 h -3.188 c -2.973,0 -4.527,1.489 -4.457,4.391 v 39.578 h -6.867 V 72.98 c 0,-5.875 3.394,-9.058 8.707,-9.058 1.769,0 5.168,0.285 6.586,0.922 z m -144.34,39.078 h -6.793 V 99.039 l -6.305,-0.281 v -4.961 h 6.305 V 73.621 c 0,-6.226 3.113,-9.699 8.988,-9.699 1.84,0 5.879,0.285 8.145,0.922 l -0.782,5.308 h -5.027 c -3.324,0 -4.531,1.133 -4.531,4.391 v 19.254 h 10.691 v 5.312 h -10.691 z m 21.73,-44.671 h 6.797 v 34.55 h -6.797 v -34.55" style="fill:url(#linearGradient100);stroke:none" id="path102"/></g><g id="g28" transform="translate(0,-0.149994)"><path d="m 86.43,3.266 v 3.117 c 44.293,0 80.199,35.906 80.199,80.199 h 3.117 C 169.746,40.566 132.445,3.266 86.43,3.266 Z M 28.051,86.582 h -3.11 c 0,33.961 27.528,61.488 61.489,61.488 v -3.117 c -32.239,0 -58.375,-26.133 -58.375,-58.371 h 6.226 c 0,-28.801 23.348,-52.148 52.149,-52.148 v -3.118 c 30.523,0 55.261,24.743 55.261,55.266 h 3.118 c 0,-32.242 -26.137,-58.379 -58.379,-58.379 -32.239,0 -58.379,26.137 -58.379,58.379 z M 86.43,37.641 c 27.031,0 48.941,21.91 48.941,48.941 h -3.031 c 0,-25.355 -20.555,-45.914 -45.91,-45.914 v 3.117 c 23.636,0 42.797,19.16 42.797,42.797 0,23.602 -19.196,42.805 -42.797,42.805 v -3.125 c -21.914,0 -39.68,-17.766 -39.68,-39.68 h -3.125 c 0,23.641 19.164,42.805 42.805,42.805 v 6.152 c -27.039,0 -48.957,-21.918 -48.957,-48.957 h -3.184 c 0,28.797 23.348,52.141 52.141,52.141 v -3.184 c 27.086,0 48.941,-21.875 48.941,-48.957 h 3.203 c 0,-28.801 -23.344,-52.144 -52.144,-52.144 z m 36.562,48.941 h 3.117 c 0,-21.914 -17.765,-39.68 -39.679,-39.68 v 3.118 c 20.195,0 36.562,16.371 36.562,36.562 z M 86.43,53.078 v 3.156 c 16.761,0 30.347,13.586 30.347,30.348 h 3.157 c 0,-18.504 -15,-33.504 -33.504,-33.504 z M 56.09,86.582 h -3.121 c 0,18.48 14.98,33.461 33.461,33.461 v -3.121 c -16.754,0 -30.34,-13.586 -30.34,-30.34 z m 6.238,0 c 0,13.309 10.793,24.102 24.102,24.102 v 3.004 c 15.031,0 27.144,-12.075 27.144,-27.106 0,-14.992 -12.152,-27.144 -27.144,-27.144 v 3.039 c -13.313,0 -24.106,10.793 -24.106,24.105 z m -46.738,0 c 0,39.125 31.719,70.84 70.84,70.84 39.187,0 70.843,-31.652 70.843,-70.84 0,-39.129 -31.714,-70.848 -70.843,-70.848 v 3.118 c 37.406,0 67.73,30.324 67.73,67.73 h -3.117 c 0,-35.684 -28.926,-64.613 -64.613,-64.613 v 3.117 c 33.965,0 61.496,27.531 61.496,61.496 h 3.117 c 0,35.742 -28.867,64.641 -64.613,64.641 v 3.082 c -37.403,0 -67.723,-30.321 -67.723,-67.723 z m -9.348,0 c 0,44.285 35.903,80.188 80.188,80.188 v -3.118 c -42.567,0 -77.075,-34.504 -77.075,-77.07 z m 157.266,0 C 163.508,44.012 129,9.504 86.43,9.504 v 3.113 c 40.847,0 73.961,33.117 73.961,73.965 z m 9.344,0 c 0,47.73 -38.692,86.422 -86.422,86.422 -47.731,0 -86.422,-38.692 -86.422,-86.422 H 0 C 0,38.848 38.695,0.148 86.43,0.148 c 47.734,0 86.429,38.7 86.429,86.434 h -0.007" style="fill:url(#linearGradient56);stroke:none" id="path58"/></g></g></g></svg>